<svg width="326" height="172" viewBox="0 0 326 172" fill="none" xmlns="http://www.w3.org/2000/svg">
<path fill-rule="evenodd" clip-rule="evenodd" d="M34 164.845C34 89.8384 94.8052 29.0332 169.812 29.0332C244.819 29.0332 305.624 89.8384 305.624 164.845C305.624 164.903 305.624 164.961 305.624 165.019H325.624C325.624 164.961 325.624 164.903 325.624 164.845C325.624 78.7927 255.865 9.0332 169.812 9.0332C83.7595 9.0332 14 78.7927 14 164.845C14 164.903 14 164.961 14.0001 165.019H34.0001C34 164.961 34 164.903 34 164.845Z" fill="white" fill-opacity="0.1"/>
<path opacity="0.75" fill-rule="evenodd" clip-rule="evenodd" d="M24.5 164.845C24.5 84.7298 89.4466 19.7832 169.562 19.7832C249.678 19.7832 314.624 84.7298 314.624 164.845C314.624 164.903 314.624 164.961 314.624 165.019H316.124C316.124 164.961 316.124 164.903 316.124 164.845C316.124 83.9013 250.506 18.2832 169.562 18.2832C88.6181 18.2832 23 83.9013 23 164.845C23 164.903 23 164.961 23.0001 165.019H24.5001C24.5 164.961 24.5 164.903 24.5 164.845Z" fill="white"/>
<path opacity="0.4" d="M40.1095 158.744C40.1095 162.12 41.2455 164.472 43.7735 164.472C46.3015 164.472 47.3735 162.12 47.3735 158.744C47.3735 155.384 46.2695 153.016 43.7415 153.016C41.2135 153.016 40.1095 155.384 40.1095 158.744ZM41.4695 158.744C41.4695 155.88 42.1095 154.216 43.7415 154.216C45.3735 154.216 46.0135 155.848 46.0135 158.744C46.0135 161.64 45.4055 163.272 43.7735 163.272C42.1895 163.272 41.4695 161.624 41.4695 158.744Z" fill="white"/>
<path opacity="0.4" d="M56.8948 105H63.7268V103.8H58.5588C59.4548 103.016 63.2628 99.64 63.2628 96.504C63.2628 95.112 62.2868 93.672 60.1908 93.672C58.6228 93.672 57.2628 94.632 56.9908 96.296L58.0788 96.744C58.3028 95.544 59.1828 94.952 60.0788 94.952C61.2948 94.952 61.9028 95.768 61.9028 96.76C61.9028 99.144 58.7188 102.168 56.8948 103.96V105Z" fill="white"/>
<path opacity="0.4" d="M101.646 63.1577H102.926V60.3577H104.478V59.0777H102.926V55.9577H101.646V59.0777H98.1577L102.59 51.9577H101.118L96.4777 59.4457V60.3577H101.646V63.1577Z" fill="white"/>
<path opacity="0.4" d="M166.8 41.8772C166.8 44.1012 168.192 46.0052 170.688 46.0052C172.432 46.0052 174.144 44.5972 174.144 42.3892C174.144 40.3572 172.784 38.9492 170.944 38.9492C169.616 38.9492 168.752 39.5892 168.304 40.4372C168.8 37.6692 170.784 35.9732 172.768 35.4612L172.24 34.4852C169.776 35.0612 166.8 37.7652 166.8 41.8772ZM168.16 41.8772C168.416 41.0932 169.2 40.1492 170.512 40.1492C172.016 40.1492 172.784 41.1892 172.784 42.4852C172.784 43.6852 171.904 44.7252 170.672 44.7252C168.992 44.7252 168.16 43.3972 168.16 41.8772Z" fill="white"/>
<path opacity="0.4" d="M234.305 56.7577C233.345 56.7577 232.497 55.9417 232.497 54.9177C232.497 53.7977 233.377 53.0777 234.481 53.0777C235.569 53.0777 236.513 53.7497 236.513 54.9177C236.513 55.9417 235.665 56.7577 234.721 56.7577H234.305ZM234.705 58.0377C235.873 58.0377 236.849 58.7577 236.865 60.0217C236.865 61.2217 235.937 62.0377 234.497 62.0377C233.137 62.0377 232.145 61.1897 232.145 60.0217C232.145 58.8537 233.169 58.0377 234.353 58.0377H234.705ZM234.513 63.3177C236.529 63.3177 238.225 62.1657 238.225 60.1657C238.225 58.6777 237.265 57.6217 236.033 57.4137V57.3657C237.185 56.9177 237.873 55.8137 237.873 54.7257C237.873 52.9657 236.353 51.7977 234.497 51.7977C232.641 51.7977 231.137 52.9657 231.137 54.7257C231.137 55.9737 231.921 57.0457 232.897 57.3817V57.4297C231.649 57.7817 230.785 58.8697 230.785 60.2617C230.785 62.1657 232.497 63.3177 234.513 63.3177Z" fill="white"/>
<path opacity="0.4" d="M269.322 95.816L269.994 96.856L271.626 95.576V105H272.906V93.736H272.01L269.322 95.816ZM275.705 99.4C275.705 102.776 276.841 105.128 279.369 105.128C281.897 105.128 282.969 102.776 282.969 99.4C282.969 96.04 281.865 93.672 279.337 93.672C276.809 93.672 275.705 96.04 275.705 99.4ZM277.065 99.4C277.065 96.536 277.705 94.872 279.337 94.872C280.969 94.872 281.609 96.504 281.609 99.4C281.609 102.296 281.001 103.928 279.369 103.928C277.785 103.928 277.065 102.28 277.065 99.4Z" fill="white"/>
<path opacity="0.4" d="M287.06 154.816L287.732 155.856L289.364 154.576V164H290.644V152.736H289.748L287.06 154.816ZM293.283 164H300.115V162.8H294.947C295.843 162.016 299.651 158.64 299.651 155.504C299.651 154.112 298.675 152.672 296.579 152.672C295.011 152.672 293.651 153.632 293.379 155.296L294.467 155.744C294.691 154.544 295.571 153.952 296.467 153.952C297.683 153.952 298.291 154.768 298.291 155.76C298.291 158.144 295.107 161.168 293.283 162.96V164Z" fill="white"/>
<path fill-rule="evenodd" clip-rule="evenodd" d="M41.8559 55.1192C14.8962 85.5666 0.0122106 124.828 0.012207 165.496H6.69144V165.019H48.5977C48.7135 136.388 59.2431 108.771 78.2305 87.3271C97.3234 65.7642 123.648 51.9347 152.237 48.4479L146.355 0.220703C105.987 5.14407 68.8156 24.6718 41.8559 55.1192Z" fill="url(#paint0_linear_36_365)"/>
<defs>
<linearGradient id="paint0_linear_36_365" x1="150.769" y1="26.6663" x2="10.0308" y2="117.311" gradientUnits="userSpaceOnUse">
<stop stop-color="#31DAFF"/>
<stop offset="1" stop-color="#D9D9D9" stop-opacity="0"/>
</linearGradient>
</defs>
</svg>
